<?xml version="1.0" standalone="no"?>
<!DOCTYPE svg PUBLIC "-//W3C//DTD SVG 20010904//EN"
 "http://www.w3.org/TR/2001/REC-SVG-20010904/DTD/svg10.dtd">
<svg version="1.0" xmlns="http://www.w3.org/2000/svg"
 width="1418.000000pt" height="1418.000000pt" viewBox="0 0 1418.000000 1418.000000"
 preserveAspectRatio="xMidYMid meet">
<metadata>
Created by potrace 1.14, written by Peter Selinger 2001-2017
</metadata>
<g transform="translate(0.000000,1418.000000) scale(0.100000,-0.100000)"
fill="#000000" stroke="none">
<path d="M4764 13434 c4 -10 2 -13 -7 -7 -17 11 -47 14 -47 5 0 -11 -104 -9
-112 3 -5 7 -8 6 -8 0 0 -6 -35 -11 -87 -12 -49 0 -105 -3 -126 -6 -21 -2 -40
0 -43 5 -3 5 -11 5 -18 -1 -7 -6 -16 -8 -19 -4 -4 3 -7 0 -7 -7 0 -7 -3 -10
-7 -7 -3 4 -12 2 -18 -3 -7 -6 -29 -11 -49 -12 -20 -1 -36 -5 -36 -9 0 -4 -7
-6 -16 -5 -9 1 -32 -13 -51 -31 -18 -19 -38 -31 -43 -28 -6 3 -10 1 -10 -5 0
-6 -4 -8 -10 -5 -5 3 -20 -1 -33 -10 -14 -9 -35 -18 -48 -20 -12 -3 -27 -9
-33 -15 -5 -5 -16 -10 -23 -10 -8 0 -23 -9 -35 -20 -12 -10 -25 -17 -30 -14
-4 3 -8 -2 -8 -10 0 -9 -7 -16 -16 -16 -8 0 -13 -3 -11 -7 6 -10 -39 -53 -47
-46 -3 4 -6 -1 -6 -10 0 -8 -4 -17 -9 -19 -5 -1 -36 -29 -70 -60 -34 -32 -66
-58 -71 -58 -6 0 -10 -4 -10 -10 0 -5 -8 -18 -17 -28 -10 -10 -48 -51 -86 -90
-37 -40 -72 -72 -77 -72 -6 0 -10 -9 -10 -20 0 -11 -4 -20 -10 -20 -5 0 -10
-7 -10 -15 0 -8 6 -15 13 -15 9 0 9 -2 0 -8 -9 -6 -1 -20 29 -48 23 -21 45
-38 50 -37 4 2 8 -4 8 -13 0 -9 6 -14 12 -12 17 6 47 -24 55 -53 3 -13 7 -53
9 -89 2 -36 4 -65 4 -65 5 0 5 -147 1 -150 -4 -2 -5 -54 -4 -117 4 -138 4
-138 16 -138 5 0 4 -6 -2 -14 -8 -9 -8 -15 -2 -18 6 -1 12 -12 14 -23 2 -11 8
-30 15 -41 6 -12 8 -24 5 -28 -3 -3 -2 -6 3 -6 5 0 9 -23 10 -50 0 -30 -4 -50
-10 -50 -6 0 -5 -4 3 -9 9 -6 10 -11 2 -15 -8 -5 -8 -13 1 -29 6 -12 10 -23 9
-25 -2 -2 1 -7 5 -10 4 -4 4 0 -1 8 -5 8 -4 12 0 7 13 -11 16 -33 18 -134 1
-60 -3 -97 -11 -105 -9 -9 -13 -8 -18 5 -5 14 -8 15 -20 2 -20 -19 -42 -77
-37 -92 3 -7 0 -13 -7 -13 -7 0 -8 -6 -1 -18 6 -11 6 -24 1 -32 -5 -8 -5 -17
0 -20 5 -3 11 -21 13 -40 2 -19 7 -42 10 -50 4 -8 8 -26 10 -40 2 -14 8 -36
14 -49 5 -13 9 -52 8 -87 -1 -35 2 -64 5 -64 3 0 6 -15 7 -34 0 -20 9 -44 22
-57 11 -13 21 -26 21 -30 0 -4 9 -11 21 -14 29 -9 59 -36 59 -53 0 -7 4 -11 8
-8 5 3 9 -7 9 -22 2 -42 14 -95 26 -117 6 -11 12 -38 15 -60 2 -22 8 -43 14
-46 5 -3 8 -8 6 -11 -5 -7 44 -108 52 -108 4 0 6 -11 4 -25 -1 -18 9 -36 34
-63 21 -21 38 -45 40 -52 2 -8 8 -17 13 -18 5 -2 7 -7 4 -12 -3 -4 10 -11 29
-14 49 -9 61 -28 36 -56 -20 -23 -19 -40 4 -40 7 0 24 -13 37 -29 22 -25 59
-38 59 -20 0 4 6 6 13 5 15 -2 57 -42 51 -49 -3 -3 10 -3 28 -2 45 5 78 -4 78
-21 0 -8 5 -14 11 -14 5 0 9 -8 8 -17 -1 -10 0 -21 1 -25 1 -5 3 -11 5 -15 6
-24 18 -42 24 -38 4 2 8 -2 9 -10 1 -8 3 -22 4 -30 1 -8 5 -15 10 -15 4 0 7
-3 6 -7 -4 -12 26 -73 34 -73 5 0 8 -4 8 -9 0 -5 8 -26 17 -47 9 -22 18 -45
19 -52 1 -8 6 -21 10 -30 4 -9 9 -26 11 -37 2 -11 8 -21 13 -23 6 -2 10 -10
10 -18 0 -9 4 -13 9 -9 6 3 8 -3 6 -14 -2 -11 3 -25 10 -31 7 -6 12 -20 10
-31 -2 -10 0 -19 6 -19 5 0 8 -3 7 -7 -2 -8 30 -63 43 -73 6 -5 16 -32 53
-135 11 -33 26 -62 31 -64 6 -2 9 -7 8 -12 -2 -5 1 -9 5 -9 4 0 8 -9 9 -20 1
-11 -2 -18 -6 -15 -5 2 -11 -4 -14 -15 -3 -13 -10 -18 -21 -14 -9 3 -16 1 -16
-5 0 -6 -7 -11 -15 -11 -29 0 -66 -24 -71 -47 -4 -13 -10 -23 -16 -23 -5 0 -7
-3 -5 -8 3 -4 -6 -21 -20 -37 -14 -17 -23 -23 -20 -14 3 9 -1 16 -9 16 -7 0
-16 -7 -19 -16 -11 -27 -14 -71 -6 -71 11 0 4 -55 -9 -80 -6 -11 -8 -20 -6
-20 3 0 -5 -11 -17 -24 -38 -42 -46 -54 -39 -60 3 -4 2 -10 -4 -14 -6 -4 -19
-29 -28 -57 -21 -63 -37 -84 -67 -89 -13 -2 -23 -9 -22 -15 2 -6 0 -10 -5 -9
-14 4 -52 -13 -52 -23 0 -6 -4 -8 -10 -4 -5 3 -18 -3 -30 -15 -11 -11 -21 -19
-23 -17 -11 8 -32 -33 -31 -58 1 -16 -2 -35 -7 -41 -5 -6 -10 -19 -12 -30 -1
-10 -5 -23 -8 -29 -4 -5 -6 -22 -5 -37 1 -14 -2 -24 -6 -22 -4 3 -8 -4 -8 -15
0 -12 -5 -21 -11 -21 -5 0 -8 -4 -4 -9 3 -6 -3 -14 -12 -20 -10 -6 -14 -11 -9
-11 6 0 0 -9 -12 -21 -12 -11 -27 -17 -34 -13 -7 5 -8 3 -4 -5 6 -8 2 -11 -10
-9 -12 2 -18 -2 -16 -10 1 -8 -2 -11 -7 -8 -12 8 -27 -14 -29 -44 -1 -14 -6
-26 -12 -28 -5 -2 -10 -9 -10 -16 0 -20 -42 -118 -61 -144 -10 -13 -15 -30
-12 -38 3 -8 0 -14 -7 -14 -6 0 -8 -4 -5 -10 3 -5 0 -10 -7 -10 -9 0 -9 -3 2
-10 8 -5 10 -10 4 -10 -11 0 -28 -35 -25 -52 1 -5 -4 -8 -9 -8 -13 0 -8 -63 5
-72 7 -5 7 -8 0 -8 -5 0 -9 -17 -9 -37 1 -21 -2 -46 -7 -55 -6 -11 -5 -18 4
-21 8 -4 9 -8 2 -14 -15 -12 -16 -65 -1 -56 8 5 8 3 0 -8 -6 -8 -10 -23 -8
-34 1 -11 -2 -23 -9 -27 -8 -5 -5 -8 8 -8 19 -1 19 -1 1 -11 -15 -9 -16 -13
-5 -20 9 -6 10 -9 2 -9 -8 0 -9 -9 -3 -30 5 -17 6 -30 2 -30 -4 0 -7 -28 -6
-63 1 -34 -3 -70 -8 -79 -6 -13 -5 -18 4 -18 10 0 10 -2 -1 -9 -7 -5 -10 -14
-7 -20 4 -6 1 -11 -6 -11 -10 0 -10 -2 1 -9 10 -6 10 -10 1 -16 -9 -6 -9 -10
1 -16 8 -5 9 -9 3 -9 -7 0 -10 -13 -9 -29 1 -16 -1 -35 -5 -41 -8 -14 11 -58
32 -72 9 -7 8 -8 -6 -4 -16 6 -17 4 -6 -9 7 -8 9 -15 5 -15 -4 0 -2 -6 4 -13
6 -8 8 -17 4 -20 -3 -4 -1 -7 5 -7 7 0 12 -6 12 -12 0 -7 7 -26 15 -41 9 -18
10 -25 2 -20 -7 4 -4 -5 5 -19 17 -26 17 -28 0 -37 -9 -6 -12 -11 -6 -11 7 0
14 -9 17 -20 3 -11 1 -18 -4 -14 -5 3 -9 0 -9 -5 0 -6 3 -11 8 -11 4 0 8 -15
9 -32 7 -144 7 -228 1 -228 -4 0 -6 -12 -5 -27 2 -16 -3 -39 -10 -52 -6 -14
-10 -28 -7 -33 3 -4 0 -8 -5 -8 -6 0 -10 -3 -9 -7 1 -5 -4 -25 -11 -46 -7 -21
-11 -44 -8 -51 3 -8 0 -19 -6 -25 -8 -8 -7 -11 3 -11 7 0 10 -3 7 -6 -4 -4 2
-19 13 -34 11 -16 20 -33 20 -39 0 -6 5 -11 12 -11 6 0 8 -3 5 -7 -4 -3 0 -15
10 -25 11 -12 16 -37 17 -76 1 -31 5 -63 10 -71 7 -10 6 -12 -4 -6 -10 6 -12
0 -8 -24 2 -17 2 -31 -2 -31 -3 0 -5 -12 -5 -27 1 -16 -3 -33 -7 -40 -5 -6 -4
-14 2 -18 7 -4 8 -11 2 -18 -10 -12 -13 -32 -12 -81 0 -15 -5 -35 -11 -42 -9
-11 -8 -14 2 -14 12 0 12 -2 0 -9 -9 -6 -12 -20 -9 -40 2 -17 1 -31 -4 -31 -5
0 -7 -4 -4 -8 2 -4 1 -14 -4 -22 -5 -8 -5 -21 1 -31 5 -11 5 -20 0 -23 -5 -3
-8 -19 -7 -36 1 -16 0 -30 -3 -30 -3 0 -6 -51 -6 -113 0 -61 -3 -115 -8 -118
-4 -3 -8 -24 -10 -47 -1 -23 -6 -42 -10 -42 -4 0 -3 -8 2 -18 6 -10 6 -24 1
-32 -5 -8 -6 -18 -4 -22 3 -4 1 -8 -4 -8 -5 0 -7 -11 -4 -25 3 -17 0 -25 -9
-25 -11 0 -11 -2 1 -10 10 -7 11 -10 2 -10 -8 0 -11 -11 -9 -35 2 -19 0 -32
-4 -29 -5 3 -7 -5 -5 -18 2 -13 -2 -29 -8 -37 -9 -12 -8 -13 3 -7 9 6 8 1 -3
-16 -9 -14 -13 -28 -9 -31 3 -4 2 -7 -4 -7 -6 0 -13 -16 -16 -36 -3 -20 -17
-46 -31 -59 -14 -13 -22 -26 -19 -29 4 -3 0 -6 -7 -6 -7 0 -10 -3 -7 -7 4 -3
2 -12 -4 -19 -6 -8 -9 -21 -5 -29 3 -8 1 -15 -5 -15 -6 0 -8 -4 -4 -9 3 -5 0
-13 -6 -16 -5 -4 -8 -13 -5 -21 3 -8 1 -14 -5 -14 -6 0 -9 -6 -6 -14 3 -7 1
-18 -5 -24 -14 -14 -17 -102 -3 -102 6 0 7 -3 0 -8 -5 -4 -10 -16 -9 -27 0
-11 -3 -30 -8 -42 -4 -14 -4 -23 3 -23 6 0 7 -6 2 -12 -4 -7 -8 -22 -9 -33 -2
-21 -11 -85 -19 -125 -3 -13 1 -28 8 -32 9 -6 9 -8 0 -8 -8 0 -13 -14 -13 -34
0 -19 -5 -38 -10 -41 -7 -4 -7 -12 0 -24 5 -10 7 -20 5 -23 -9 -8 -11 -87 -3
-82 12 7 -4 -30 -16 -38 -7 -5 -7 -8 2 -8 9 0 10 -5 4 -17 -11 -23 -9 -134 2
-152 6 -9 5 -12 -1 -8 -7 5 -10 -16 -9 -59 1 -36 -1 -67 -4 -69 -4 -2 -5 -24
-4 -49 2 -26 -1 -46 -7 -46 -6 0 -6 -7 0 -19 6 -10 7 -21 4 -25 -10 -10 -16
-96 -10 -151 1 -16 -1 -38 -6 -47 -5 -12 -4 -18 5 -18 8 0 6 -4 -4 -10 -10 -6
-15 -19 -13 -30 2 -11 -2 -20 -8 -20 -8 0 -8 -3 2 -9 9 -6 10 -11 2 -15 -6 -4
-11 -12 -11 -17 0 -6 4 -8 8 -5 4 2 8 -4 8 -14 0 -10 -4 -16 -9 -13 -12 7 -4
-30 8 -39 6 -5 5 -8 -3 -8 -10 0 -10 -5 -2 -20 6 -11 8 -20 5 -20 -3 0 -1 -9
5 -20 8 -15 8 -20 -1 -20 -7 0 -10 -3 -6 -6 3 -3 2 -17 -4 -31 -6 -16 -6 -22
1 -18 8 5 16 -39 11 -67 0 -5 5 -8 11 -8 9 0 8 -4 -2 -10 -11 -7 -11 -10 -2
-10 7 0 10 -4 7 -10 -3 -5 -1 -10 5 -10 6 0 9 -4 6 -9 -4 -5 -1 -11 5 -13 7
-2 12 -34 12 -85 0 -45 3 -80 7 -78 4 2 5 -7 2 -22 -4 -20 -2 -24 9 -18 12 8
12 6 1 -8 -8 -9 -12 -20 -9 -24 3 -4 8 -30 11 -57 4 -27 7 -52 8 -55 3 -14
-15 -40 -23 -35 -5 3 -9 -2 -9 -10 0 -8 -5 -18 -12 -22 -7 -5 -9 -2 -4 7 4 8
0 5 -8 -5 -9 -11 -16 -17 -16 -13 0 4 -12 1 -27 -6 -18 -8 -51 -12 -88 -10
-68 4 -128 -4 -120 -16 3 -5 -1 -11 -8 -14 -15 -6 -22 -87 -8 -87 5 0 7 -10 3
-22 -4 -16 -2 -19 8 -13 10 6 9 2 -2 -13 -18 -26 -84 -72 -92 -64 -3 3 -6 1
-6 -5 0 -9 -27 -21 -47 -21 -3 0 -9 -4 -12 -9 -9 -14 -110 -73 -124 -73 -6 0
-25 -11 -41 -25 -16 -14 -34 -25 -40 -25 -6 0 -28 -11 -49 -25 -20 -14 -37
-23 -37 -20 0 4 -7 -1 -16 -9 -8 -9 -22 -16 -30 -16 -8 0 -14 -4 -14 -10 0 -5
-5 -10 -11 -10 -6 0 -30 -14 -55 -30 -24 -17 -44 -27 -44 -23 0 4 -4 3 -8 -2
-8 -12 -105 -75 -115 -75 -6 0 -43 -29 -71 -56 -7 -6 -22 -15 -34 -18 -12 -4
-20 -11 -18 -15 3 -4 -11 -13 -30 -20 -18 -7 -34 -17 -34 -22 0 -6 -4 -7 -10
-4 -5 3 -10 1 -10 -5 0 -6 -11 -15 -25 -20 -14 -5 -25 -14 -25 -19 0 -5 -11
-12 -25 -15 -14 -4 -25 -11 -25 -16 0 -6 -6 -10 -13 -10 -7 0 -23 -9 -35 -20
-12 -12 -22 -18 -22 -15 0 6 -16 -6 -51 -37 -10 -10 -23 -18 -28 -18 -5 0 -14
-6 -21 -14 -6 -8 -18 -12 -26 -9 -8 3 -14 0 -14 -6 0 -14 -52 -61 -67 -61 -7
0 -13 -5 -13 -12 0 -6 -3 -9 -6 -5 -4 3 -12 1 -19 -6 -7 -7 -21 -18 -31 -25
-65 -43 -132 -86 -155 -98 -15 -7 -33 -19 -41 -26 -7 -7 -36 -24 -65 -37 -29
-13 -50 -28 -47 -32 6 -10 -25 -27 -61 -32 -30 -4 -88 -54 -79 -68 3 -5 2 -9
-3 -9 -4 0 -34 -24 -65 -52 -31 -29 -67 -61 -79 -70 -13 -10 -17 -18 -10 -18
6 0 9 -4 6 -10 -3 -5 -13 -10 -22 -10 -9 0 -38 -16 -64 -35 -27 -19 -54 -35
-60 -35 -5 0 -7 -4 -4 -10 3 -5 -1 -10 -10 -10 -9 0 -14 -4 -10 -9 3 -5 -4
-12 -15 -16 -11 -3 -20 -11 -20 -16 0 -5 -6 -9 -14 -9 -8 0 -26 -14 -40 -31
-14 -17 -26 -27 -26 -23 0 4 -14 -10 -30 -31 -17 -21 -30 -34 -30 -30 0 4 -16
-13 -35 -37 -19 -23 -39 -48 -44 -54 -5 -6 -17 -26 -26 -45 -10 -19 -24 -42
-32 -51 -8 -9 -12 -22 -8 -27 7 -13 8085 -16 8085 -3 0 4 11 14 25 23 l26 15
-23 29 c-12 16 -17 26 -10 21 7 -4 12 -1 12 8 0 9 7 16 15 16 8 0 15 4 15 9 0
5 16 15 35 22 19 7 35 17 35 21 0 4 3 7 8 5 4 -1 14 4 22 11 45 38 64 52 72
52 4 0 8 5 8 11 0 7 11 22 26 35 14 13 22 24 18 24 -3 0 -1 6 5 13 6 8 8 17 4
20 -3 4 -1 7 5 7 7 0 12 8 12 18 0 10 3 22 8 26 4 4 8 12 8 17 1 5 2 10 3 12
1 1 4 16 6 32 6 58 17 120 22 128 3 5 -1 13 -8 18 -9 5 -10 9 -2 9 6 0 10 11
8 25 -1 14 1 28 5 30 5 3 7 21 6 41 -1 20 1 37 5 39 7 5 11 82 13 222 0 57 4
103 8 103 4 0 5 10 3 22 -3 12 1 26 8 30 9 6 9 8 -1 8 -8 0 -10 5 -6 12 9 14
14 42 15 73 0 10 4 25 10 31 5 7 6 15 2 17 -5 3 -8 35 -7 71 1 36 -2 69 -7 72
-6 4 -6 11 1 19 8 10 8 15 -1 20 -6 4 -7 10 -2 14 22 15 41 74 33 102 -5 18
-5 29 1 29 6 0 5 8 -1 20 -8 16 -8 20 4 20 8 0 18 9 21 20 4 11 11 18 16 15 5
-4 12 1 15 9 3 9 13 16 21 16 8 0 12 4 9 9 -8 13 4 42 15 35 5 -3 9 -1 9 5 0
6 7 8 15 5 11 -5 15 1 15 23 0 32 23 65 53 76 9 3 17 11 17 17 0 6 4 9 9 5 17
-10 21 13 5 29 -14 15 -14 17 1 22 9 4 14 12 11 20 -3 8 2 11 17 8 11 -2 24 2
28 8 6 9 11 8 23 -1 11 -9 16 -10 16 -2 0 6 10 11 21 11 18 0 19 2 9 15 -11
13 -10 14 3 9 12 -4 15 -1 12 15 -2 14 1 21 11 21 9 0 12 5 8 13 -4 6 -4 9 1
5 4 -4 15 -2 24 4 9 7 13 8 9 4 -9 -10 30 -41 39 -32 3 3 15 0 26 -6 17 -9 19
-8 14 7 -6 14 -3 13 18 -3 15 -12 34 -18 45 -15 12 3 20 0 20 -7 0 -9 4 -9 17
1 10 8 14 9 10 2 -5 -8 -1 -11 12 -10 11 0 18 4 16 7 -2 3 5 11 15 18 11 7 21
8 25 2 3 -5 17 -3 32 5 15 8 31 11 36 8 6 -3 7 -1 3 6 -6 8 0 10 18 5 16 -4
26 -2 26 4 0 7 10 8 30 2 21 -6 30 -5 30 3 0 8 2 9 8 1 4 -6 22 -10 40 -9 17
1 32 -3 32 -9 0 -6 5 -4 10 4 7 11 10 11 10 2 0 -10 5 -10 21 -1 15 8 19 8 15
0 -4 -6 -3 -11 3 -11 5 0 13 5 16 10 5 8 11 8 19 1 9 -7 17 -7 26 2 10 10 12
9 6 -3 -6 -12 -5 -12 6 1 14 16 55 18 78 4 9 -5 11 -4 6 3 -4 7 -2 12 3 12 6
0 11 -4 11 -8 0 -12 62 -2 79 12 12 9 13 8 6 -3 -5 -10 -4 -12 3 -7 7 4 12 15
13 24 0 11 3 12 6 5 6 -16 33 -17 33 -2 0 6 6 9 13 6 6 -2 18 3 25 12 8 9 11
11 8 4 -4 -7 1 -9 14 -6 11 3 20 10 20 16 0 6 3 7 7 4 3 -4 17 5 30 19 12 14
23 20 23 14 0 -6 4 -9 9 -6 4 3 21 2 37 -3 39 -11 52 -5 75 33 10 17 19 25 19
17 0 -11 4 -9 16 5 8 10 13 12 9 4 -3 -8 2 -5 11 8 9 12 20 22 25 22 14 0 59
42 59 56 0 6 11 15 25 18 14 4 25 11 25 16 0 6 11 10 25 10 15 0 25 -6 25 -14
0 -8 7 -16 15 -20 11 -4 14 -16 11 -46 -4 -35 -2 -40 17 -41 12 0 16 -3 9 -6
-9 -4 -8 -9 6 -21 11 -10 18 -25 16 -35 -1 -11 0 -16 3 -14 3 3 15 2 27 -3 13
-4 29 -4 39 1 11 7 17 6 17 -1 0 -7 6 -8 18 -1 12 6 23 6 33 -1 11 -8 9 -8 -6
-3 -16 5 -17 4 -8 -6 10 -10 15 -9 28 1 8 7 15 10 15 6 0 -3 11 -1 25 4 19 7
27 6 34 -8 7 -11 11 -12 11 -4 0 7 4 10 10 7 5 -3 18 -1 27 4 12 7 14 10 4 11
-11 0 -11 3 -1 15 10 12 10 15 -1 15 -8 0 -4 9 9 23 12 13 19 27 15 30 -3 4
-2 7 4 7 6 0 13 12 16 27 5 27 -11 53 -34 53 -7 0 -10 3 -6 6 3 4 -4 15 -16
24 -20 16 -20 19 -5 25 10 4 15 15 13 26 -2 10 0 19 5 19 4 0 7 8 5 18 -1 9 2
23 8 30 5 6 6 12 2 12 -4 0 -2 7 6 16 10 12 10 17 1 23 -14 8 -6 41 10 41 5 0
6 6 2 13 -4 6 -4 9 0 5 5 -4 20 -2 34 3 16 6 29 6 35 0 5 -5 16 -7 23 -4 13 5
19 -8 15 -31 -1 -5 4 -4 12 2 8 7 17 9 20 5 4 -3 7 -1 7 6 0 7 5 9 10 6 6 -3
10 -3 10 2 0 4 14 9 32 10 17 1 35 8 40 15 6 10 8 10 8 -2 1 -11 4 -10 15 4 8
11 15 16 15 12 0 -5 6 -4 13 2 9 8 162 10 162 2 0 -3 39 -11 63 -13 12 0 22
-5 22 -9 0 -11 38 -10 45 1 3 6 18 6 35 1 20 -6 28 -5 24 1 -3 6 5 7 23 3 15
-4 39 -7 53 -6 51 3 79 8 85 14 4 4 13 4 21 1 8 -3 22 1 31 8 14 12 16 12 8 0
-6 -11 -5 -12 6 -5 17 10 59 14 59 4 0 -3 10 -5 23 -4 30 2 67 15 67 23 0 10
59 11 65 1 4 -6 15 -10 26 -10 14 0 18 -4 13 -12 -6 -10 -5 -10 7 -1 8 7 36
14 62 16 39 4 47 2 47 -12 1 -14 2 -14 11 2 5 9 15 17 22 17 7 0 6 -4 -3 -10
-11 -7 -12 -10 -2 -10 8 0 16 9 19 21 4 16 8 17 14 7 7 -10 9 -10 9 0 0 10 5
10 20 2 14 -8 20 -8 20 0 0 6 4 9 9 5 5 -3 12 -1 16 5 3 5 25 10 49 10 23 0
46 3 50 7 3 4 17 8 29 10 12 2 24 8 25 13 2 6 10 10 18 10 8 0 17 7 20 15 4 8
10 12 15 9 6 -3 17 0 25 7 13 10 17 10 25 -2 6 -10 9 -11 9 -1 0 7 6 12 13 11
25 -3 38 1 32 10 -3 6 4 8 15 6 11 -2 20 0 20 6 0 5 7 9 15 9 9 0 18 7 22 16
3 8 12 13 19 10 8 -3 14 -1 14 5 0 6 4 8 9 4 5 -3 12 -1 16 5 3 5 14 10 23 10
10 0 24 9 32 20 8 11 20 20 27 20 7 0 13 7 13 16 0 9 5 13 13 9 6 -3 4 0 -5 7
-15 11 -15 14 10 38 38 35 71 77 52 65 -13 -8 -12 -7 0 5 9 9 16 25 15 37 -1
15 6 23 23 28 13 3 22 9 18 12 -3 3 2 12 12 20 10 9 11 12 2 7 -11 -5 -10 -2
2 12 35 38 70 84 63 84 -3 0 1 7 9 16 9 8 14 20 10 25 -5 9 52 26 69 21 5 -1
6 1 3 6 -3 5 -1 23 4 41 5 17 5 31 1 31 -9 0 -8 37 1 46 4 3 4 12 1 20 -3 8 0
14 7 14 6 0 8 5 5 10 -3 6 1 13 9 16 9 3 14 10 11 14 -3 4 2 13 10 20 8 7 12
16 9 21 -3 5 0 9 6 9 6 0 8 5 5 10 -3 6 -1 10 5 10 6 0 9 4 6 8 -3 5 4 19 15
31 11 12 17 26 14 31 -3 6 0 10 7 10 9 0 9 3 -2 10 -10 6 -11 10 -3 10 9 0 10
7 3 26 -6 14 -8 29 -6 33 20 31 21 98 3 120 -8 9 -13 26 -12 39 1 13 -2 25 -6
28 -5 2 -6 11 -3 18 3 8 1 17 -5 21 -6 3 -11 15 -11 26 0 10 -4 19 -10 19 -5
0 -9 6 -7 13 1 6 -3 11 -10 10 -9 -2 -10 4 -4 20 4 12 6 28 4 35 -3 6 0 12 7
12 6 0 8 4 5 10 -3 6 -2 10 3 10 12 0 12 32 -1 47 -6 9 -6 13 2 13 7 0 9 5 6
10 -6 9 8 15 29 11 5 -1 3 6 -5 15 -12 16 -12 17 4 11 16 -6 15 -3 -4 25 -13
17 -16 28 -8 23 12 -7 12 -6 1 7 -10 13 -11 22 -2 37 8 16 8 21 -2 21 -10 0
-10 2 0 9 10 6 11 13 1 34 -7 15 -16 24 -22 20 -6 -3 -7 -1 -3 5 4 7 -9 27
-29 46 -19 19 -35 40 -35 48 0 7 -7 25 -14 41 -8 15 -11 27 -6 27 5 0 7 7 4
15 -4 8 -10 13 -15 10 -4 -3 -6 3 -4 14 2 11 -3 22 -11 25 -8 3 -14 14 -14 25
0 11 -4 23 -10 26 -5 3 -10 15 -10 25 0 11 -16 27 -40 41 -22 12 -42 31 -46
41 -3 10 -9 18 -14 18 -4 0 -7 11 -6 25 2 13 -1 22 -5 19 -5 -3 -9 2 -9 11 0
9 -7 23 -15 32 -8 8 -13 19 -10 24 4 5 2 9 -4 9 -5 0 -12 9 -16 20 -3 11 -11
19 -18 17 -6 -1 -13 8 -15 21 -2 12 -8 22 -14 22 -6 0 -8 9 -5 20 3 11 0 20
-6 20 -7 0 2 10 18 21 17 12 22 19 13 16 -12 -4 -15 -2 -11 8 3 8 9 12 14 9 5
-3 9 2 9 10 0 9 5 16 11 16 5 0 7 5 4 10 -3 6 -1 10 5 10 6 0 8 5 4 13 -5 7
-2 7 10 -2 15 -12 17 -12 14 0 -2 8 3 13 12 11 11 -2 10 1 -3 12 -14 10 -15
15 -5 19 7 3 3 6 -10 6 -13 1 -20 5 -17 11 3 6 -1 13 -10 16 -12 5 -13 9 -4
20 9 11 8 14 -6 14 -11 0 -15 5 -11 15 4 11 -1 15 -17 15 -18 0 -19 2 -7 10
13 9 13 10 0 11 -8 1 -18 1 -22 0 -7 -1 -12 22 -9 42 0 4 -2 7 -7 7 -4 0 -13
13 -20 30 -8 17 -20 30 -27 30 -7 0 -16 7 -19 16 -3 8 -10 12 -16 9 -5 -3 -10
-1 -10 6 0 8 -5 7 -17 -2 -9 -8 -14 -9 -11 -4 3 6 0 16 -8 23 -8 7 -14 10 -14
7 0 -4 -14 9 -31 27 -18 18 -29 27 -25 21 5 -9 2 -11 -8 -7 -9 3 -13 11 -9 18
4 6 -2 4 -12 -4 -10 -8 -16 -10 -12 -4 4 7 -1 18 -10 25 -12 10 -14 10 -9 2
10 -18 -4 -16 -26 4 -17 15 -18 15 -13 1 5 -13 2 -15 -14 -11 -11 3 -19 8 -17
12 2 3 -13 5 -34 5 -27 -1 -37 2 -34 10 3 7 -3 19 -13 27 -16 12 -17 12 -8 -1
9 -14 -4 0 -35 37 -6 8 -6 14 1 18 7 5 6 11 -1 20 -7 8 -9 18 -7 22 3 5 -3 26
-13 48 -13 27 -15 45 -9 57 6 11 5 19 -1 23 -11 7 25 82 45 97 6 5 4 8 -5 8
-13 0 -13 1 0 10 11 7 11 10 2 10 -7 0 -11 4 -8 9 4 5 0 12 -6 14 -10 4 -10 6
0 6 8 1 10 6 5 14 -4 6 -8 18 -10 26 -6 40 -15 61 -23 56 -6 -3 -10 1 -10 9 0
9 -5 16 -12 16 -6 0 -8 3 -5 7 4 3 1 13 -6 21 -10 13 -9 15 5 9 16 -5 16 -4 5
16 -6 12 -17 25 -24 30 -8 5 -9 17 -3 36 4 16 6 32 2 35 -3 3 0 6 6 6 15 0 -3
35 -35 65 -13 12 -20 25 -16 28 3 4 1 7 -5 7 -7 0 -12 6 -12 13 0 6 -16 31
-34 55 -20 25 -33 51 -31 63 2 10 0 19 -6 19 -5 0 -9 6 -9 13 0 17 -35 59 -43
51 -3 -3 -14 -1 -24 5 -10 6 -13 11 -7 11 5 0 10 11 10 25 0 13 -2 22 -5 20
-6 -6 -41 67 -36 75 2 3 -9 5 -23 4 -38 -2 -43 3 -32 31 5 14 6 25 1 25 -4 0
-6 11 -3 25 3 17 0 25 -9 25 -8 0 -27 7 -42 15 -19 9 -25 10 -21 2 5 -8 2 -8
-7 1 -9 8 -10 15 -4 20 6 4 9 18 8 32 -2 14 -4 44 -5 68 0 25 -6 42 -13 42 -7
0 -10 11 -7 30 2 16 8 30 12 30 10 0 6 47 -5 73 -4 9 -4 34 -1 55 11 70 13
113 4 118 -4 3 -5 11 -1 17 11 17 10 41 -2 49 -6 5 -2 8 7 8 10 0 20 10 24 25
3 14 11 25 18 25 8 0 8 2 0 8 -15 10 -27 62 -14 62 5 0 10 7 10 15 0 8 4 15 8
15 5 0 8 24 7 54 0 30 3 52 7 50 12 -8 5 19 -7 28 -6 5 -5 8 3 8 7 0 10 4 7
10 -3 6 -1 10 4 10 11 0 10 34 -1 45 -3 4 -2 21 4 38 5 18 10 38 11 44 0 7 3
11 5 8 3 -3 11 0 19 6 11 10 11 16 -3 37 -11 17 -12 22 -3 16 12 -6 12 -5 1 8
-7 9 -10 29 -7 47 4 23 1 33 -10 37 -8 4 -15 14 -15 24 0 11 -5 22 -11 25 -6
4 -8 13 -5 21 3 8 2 14 -3 14 -5 0 -16 11 -25 25 -13 19 -13 23 -2 19 11 -4
13 0 9 15 -3 13 -1 21 6 21 7 0 9 5 6 10 -3 6 1 10 9 10 9 0 17 6 17 13 1 6 3
26 4 42 2 17 4 30 5 30 1 0 3 12 4 28 1 15 -2 27 -6 27 -4 0 -7 3 -7 8 3 19
-3 22 -21 12 -17 -9 -20 -8 -20 7 0 15 -2 16 -10 3 -7 -11 -10 -7 -10 17 0 33
-37 73 -67 73 -8 0 -11 5 -7 12 5 7 2 9 -9 5 -12 -4 -14 -2 -10 10 4 11 2 14
-5 9 -8 -5 -10 -2 -6 8 4 10 1 16 -7 16 -11 0 -11 3 1 10 13 8 12 10 -2 10
-10 0 -18 5 -18 11 0 5 6 7 13 4 6 -4 2 2 -10 13 -12 11 -19 22 -16 26 4 3 -5
6 -18 6 -14 0 -36 10 -48 21 -14 13 -36 22 -52 21 -16 0 -31 4 -34 9 -4 5 -13
9 -21 9 -8 0 -26 8 -41 17 -26 17 -37 21 -80 25 -13 1 -23 6 -23 11 0 4 -4 6
-9 3 -5 -4 -11 -1 -13 5 -5 14 -49 18 -65 6 -9 -6 -13 -5 -13 2 0 8 -5 9 -18
2 -10 -5 -24 -6 -32 -1 -8 5 -22 4 -32 -1 -13 -7 -18 -6 -18 3 0 9 -3 9 -10
-2 -8 -12 -10 -12 -10 -1 0 8 -3 11 -6 8 -4 -3 -15 -2 -25 4 -11 5 -19 6 -19
1 0 -4 -21 -7 -46 -5 -35 3 -44 1 -38 -9 6 -10 3 -9 -9 1 -14 11 -18 11 -23
-2 -3 -9 -12 -13 -20 -10 -7 3 -17 -2 -20 -11 -3 -9 -13 -16 -20 -16 -8 0 -17
-7 -20 -15 -4 -8 -15 -15 -26 -15 -10 0 -17 -3 -15 -7 6 -11 -30 -43 -39 -35
-5 4 -2 -2 6 -12 10 -13 10 -17 3 -12 -8 4 -13 2 -13 -6 0 -10 -2 -10 -8 -1
-6 9 -12 8 -23 -5 -17 -20 -21 -52 -7 -52 5 0 3 -6 -4 -14 -7 -8 -16 -12 -20
-9 -5 2 -8 -2 -8 -11 0 -8 -6 -17 -12 -19 -10 -4 -9 -8 2 -16 8 -6 10 -11 4
-11 -7 0 -19 -12 -29 -26 -11 -18 -13 -24 -4 -19 8 5 5 -1 -6 -12 -11 -11 -23
-19 -27 -16 -5 2 -8 -2 -8 -10 0 -10 -8 -13 -25 -10 -13 3 -23 10 -22 17 1 6
-4 10 -11 8 -8 -1 -11 2 -8 7 4 5 2 12 -3 16 -6 3 -8 12 -4 20 3 8 0 15 -7 15
-6 0 -8 5 -5 10 3 6 2 10 -4 10 -5 0 -8 9 -6 19 2 11 -3 22 -12 25 -8 4 -13
13 -10 20 3 8 -3 26 -13 39 -11 13 -16 27 -13 31 3 3 1 6 -5 6 -7 0 -12 7 -12
17 0 9 -3 13 -6 10 -9 -8 -54 43 -54 61 0 6 -4 12 -10 12 -5 0 -10 6 -10 14 0
8 -8 21 -17 28 -22 16 -41 54 -45 88 -2 14 -7 28 -11 31 -5 3 -9 21 -9 38 -1
20 -8 37 -19 44 -9 6 -15 16 -12 22 2 7 -3 15 -11 18 -9 4 -16 13 -16 22 0 8
-4 15 -10 15 -5 0 -10 9 -10 21 0 13 -4 18 -12 13 -7 -5 -8 -3 -2 7 11 19 13
78 3 85 -5 3 -6 10 -2 17 11 17 13 97 2 97 -5 0 -9 5 -9 11 0 5 6 7 13 4 6 -4
5 0 -3 7 -24 21 -56 62 -43 55 14 -9 14 32 0 51 -5 7 -6 12 0 12 15 0 14 51
-3 67 -8 9 -13 22 -10 30 3 8 1 24 -5 35 -8 16 -8 19 1 13 9 -6 9 -2 1 14 -7
11 -9 21 -7 21 3 0 -3 16 -14 36 -11 19 -16 33 -10 29 5 -3 3 7 -4 22 -8 15
-19 39 -25 53 -6 14 -20 39 -30 55 -10 17 -15 35 -11 40 13 17 7 48 -12 67
-13 13 -18 31 -16 65 1 28 -3 48 -10 51 -7 2 -10 8 -6 13 3 5 1 9 -4 9 -10 0
-8 112 2 128 3 6 0 13 -6 15 -10 4 -10 6 -1 6 7 1 10 8 7 16 -4 8 -9 13 -13
10 -10 -6 -7 27 4 44 5 10 4 12 -3 7 -7 -4 -12 -1 -12 8 0 8 6 17 13 19 9 4 8
6 -2 6 -11 1 -11 4 -1 16 7 8 9 15 4 15 -5 0 -3 4 4 8 16 10 4 45 -12 35 -6
-4 -5 1 3 10 7 9 9 17 4 17 -5 0 -9 8 -10 18 -1 9 -3 36 -6 60 -2 23 -1 42 2
42 4 0 8 24 9 52 1 29 6 54 11 56 5 2 6 15 2 30 -5 15 -7 35 -5 44 1 10 -2 20
-7 23 -5 4 0 16 11 27 15 17 17 24 8 30 -7 4 -9 8 -4 8 5 0 1 9 -8 19 -15 16
-16 34 -11 132 8 167 8 257 0 324 -4 33 -9 71 -10 85 -1 14 -5 32 -9 40 -3 8
-7 29 -9 45 -2 17 -9 40 -16 53 -6 12 -8 22 -4 22 4 0 -2 7 -14 15 -13 9 -20
23 -18 35 2 13 -2 20 -11 20 -8 0 -14 7 -14 15 0 8 -5 15 -11 15 -7 0 -25 14
-41 30 -16 17 -34 28 -40 24 -7 -4 -8 -3 -4 4 4 7 2 12 -4 12 -5 0 -51 40
-100 90 -50 49 -90 87 -90 83 0 -3 -6 0 -13 6 -8 6 -18 7 -22 3 -5 -4 -6 0 -3
9 7 19 -40 82 -54 73 -6 -4 -8 -2 -4 4 3 6 -3 17 -14 25 -11 7 -17 17 -13 20
3 4 1 7 -6 7 -16 0 -42 26 -34 34 4 3 -1 6 -10 6 -10 0 -17 5 -17 12 0 6 -3 9
-6 5 -3 -3 -25 14 -48 39 -23 24 -45 44 -49 44 -9 0 -25 12 -78 63 -22 20 -44
37 -49 37 -6 0 -10 5 -10 10 0 6 -5 10 -11 10 -5 0 -7 -5 -3 -12 5 -7 3 -8 -7
-2 -15 9 -35 15 -59 16 -8 0 -23 7 -32 15 -9 8 -22 12 -27 8 -6 -3 -11 -2 -11
2 0 5 -14 10 -32 11 -18 2 -35 7 -38 11 -3 5 -19 11 -35 13 -36 5 -115 40
-115 50 0 5 -9 8 -20 8 -11 0 -20 6 -20 13 0 8 -4 7 -10 -3 -6 -10 -10 -11
-10 -2 0 7 -13 12 -30 12 -17 0 -30 -5 -30 -12 0 -9 -3 -10 -8 -2 -11 16 -50
24 -56 10 -3 -8 -5 -7 -5 1 -1 7 -8 10 -18 6 -10 -4 -14 -2 -10 4 4 6 -9 10
-31 11 -20 1 -38 6 -40 12 -3 7 -9 6 -20 -2 -13 -11 -14 -11 -7 1 6 11 2 13
-19 9 -14 -3 -29 -2 -31 2 -3 5 -16 7 -30 6 -13 -2 -22 1 -19 5 5 8 -57 15
-81 9 -5 -1 -14 -2 -20 -2 -65 3 -95 6 -95 12 0 4 -52 8 -115 9 -89 1 -115 -1
-115 -11 0 -8 -3 -9 -8 -3 -8 12 -53 15 -46 4 2 -4 -5 -7 -16 -6 -11 1 -20 4
-20 7 0 3 -14 5 -30 6 -17 1 -30 -3 -30 -7 0 -5 -7 -6 -16 -2 -9 3 -20 0 -25
-8 -7 -12 -9 -12 -9 0 0 10 -6 10 -26 -4 -15 -9 -23 -12 -20 -6 4 6 3 11 -3
11 -5 0 -12 -6 -14 -12 -4 -10 -6 -9 -6 1 -1 11 -4 11 -17 0 -13 -10 -17 -10
-24 0 -5 9 -13 10 -21 5 -19 -12 -33 -12 -41 1 -5 6 -8 4 -8 -5 0 -11 -3 -12
-8 -3 -4 6 -21 14 -37 17 -17 2 -31 5 -32 6 -9 7 -30 5 -42 -4 -11 -8 -13 -8
-7 2 4 6 3 12 -2 12 -6 0 -12 -7 -16 -15 -3 -8 -11 -15 -18 -15 -9 0 -9 3 2
10 8 5 12 12 8 15 -3 3 -14 -2 -23 -12 -20 -19 -29 -22 -97 -25 -27 -2 -48 1
-48 7 0 5 -4 4 -9 -3 -4 -8 -11 -13 -15 -13 -3 1 -7 1 -8 0 -21 -6 -47 -11
-65 -13 -12 0 -21 -3 -20 -6 1 -3 -2 -5 -8 -5 -5 0 -9 5 -7 10 1 6 -4 2 -12
-8 -19 -24 -20 -24 -41 -7 -15 12 -17 12 -10 1 6 -11 4 -13 -8 -8 -10 4 -17 1
-17 -6 0 -8 -4 -7 -11 3 -8 12 -12 12 -16 2 -4 -10 -8 -10 -19 -1 -11 9 -14 8
-14 -2 0 -11 -2 -11 -10 1 -8 13 -10 12 -10 -3 0 -10 -4 -15 -10 -12 -5 3 -10
2 -10 -2 0 -8 -46 -31 -75 -38 -5 -1 -34 -14 -64 -29 -60 -29 -87 -32 -95 -13
-3 9 -9 7 -19 -5 -8 -10 -17 -15 -21 -11 -3 4 -12 -2 -20 -12 -9 -13 -15 -15
-20 -6 -5 7 -17 1 -38 -19 -48 -48 -93 -80 -114 -80 -27 0 -76 -29 -123 -72
-22 -21 -43 -38 -46 -38 -5 0 -40 -37 -85 -89 -11 -13 -20 -28 -20 -33 0 -5
-3 -7 -7 -5 -5 3 -19 -12 -32 -34 -14 -21 -27 -36 -29 -34 -6 6 -38 -37 -35
-47 2 -4 -6 -10 -17 -13 -11 -4 -20 -10 -20 -15 0 -21 -136 -160 -157 -160 -7
0 -13 -5 -13 -11 0 -5 -4 -8 -9 -4 -5 3 -13 0 -17 -6 -4 -8 -3 -9 4 -5 17 10
15 -3 -2 -20 -17 -16 -30 -19 -21 -4 3 6 0 10 -7 10 -10 0 -10 2 1 9 22 14
-43 19 -92 6 -25 -6 -52 -19 -61 -27 -8 -9 -19 -18 -24 -20 -4 -1 -18 -17 -30
-35 -26 -36 -30 -83 -7 -83 18 0 20 -36 3 -46 -7 -5 -8 -3 -3 6 5 8 4 11 -2 7
-6 -4 -13 -17 -15 -30 -4 -21 -2 -22 18 -13 12 6 20 15 17 20 -4 5 -1 6 5 2 7
-4 12 -2 12 5 0 7 3 9 7 5 4 -3 -11 -25 -33 -49 -37 -38 -77 -106 -55 -93 5 3
7 -3 4 -14 -3 -11 -10 -17 -16 -13 -6 4 -8 0 -4 -10 3 -10 3 -17 -2 -17 -12 0
-31 -72 -31 -119 0 -22 4 -41 9 -41 13 0 7 -28 -18 -83 -12 -25 -21 -50 -21
-55 0 -5 -7 -15 -15 -22 -8 -7 -12 -16 -9 -21 3 -5 1 -9 -4 -9 -5 0 -12 -9
-15 -20 -3 -11 -1 -18 4 -14 5 3 9 0 9 -7 0 -12 -22 -34 -74 -72 -16 -12 -39
-33 -52 -45 -13 -13 -27 -21 -33 -18 -5 3 -11 1 -13 -6 -3 -8 -7 -6 -11 4 -4
12 -1 16 13 13 11 -2 23 1 26 7 4 6 2 8 -4 4 -6 -3 -13 -2 -17 4 -4 6 -9 8
-13 6 -9 -5 -8 242 1 250 3 4 2 15 -4 25 -6 13 -6 19 1 19 5 0 9 3 8 8 -1 4
10 20 25 36 15 16 25 36 22 43 -2 8 -1 12 4 9 14 -9 45 47 43 79 -2 32 14 56
62 93 16 12 25 22 21 22 -5 0 2 9 14 19 12 11 23 28 24 39 0 12 5 18 9 16 4
-3 9 3 10 13 2 33 3 38 11 50 4 6 2 15 -4 19 -8 4 -8 9 -1 13 20 12 31 134 19
211 -3 19 -6 41 -6 48 -1 7 -5 11 -10 8 -5 -4 -7 2 -5 11 3 10 -8 42 -23 72
-23 45 -35 57 -65 67 -26 9 -38 10 -38 2 0 -7 -5 -7 -14 1 -10 9 -16 9 -21 1
-5 -8 -11 -8 -21 1 -8 6 -14 7 -14 2 0 -5 -7 -10 -15 -10 -8 0 -15 4 -15 9 0
5 -3 7 -7 5 -5 -3 -9 36 -10 86 -1 51 -5 135 -8 187 -7 114 -7 108 -2 143 3
15 0 27 -7 27 -7 0 -7 3 -1 8 11 8 15 132 5 132 -4 0 -7 7 -7 15 0 8 5 12 10
8 5 -3 6 4 2 17 -9 27 -13 79 -17 183 -1 42 -5 77 -9 77 -4 0 -3 16 1 35 5 24
4 33 -3 28 -6 -4 -8 2 -5 15 5 16 2 22 -10 22 -14 0 -14 2 -3 9 9 6 10 11 2
15 -6 4 -9 12 -5 17 3 5 0 17 -8 26 -11 14 -11 16 1 8 11 -6 13 -2 9 19 -3 15
-1 26 6 26 6 0 5 4 -3 9 -7 5 -11 14 -7 19 9 15 -20 81 -44 102 -11 10 -20 21
-20 25 0 13 -48 64 -54 58 -3 -4 -6 -2 -6 4 0 10 -73 64 -85 63 -3 0 -15 9
-27 20 -12 11 -28 20 -35 20 -7 0 -13 5 -13 10 0 6 -4 10 -10 10 -5 0 -19 9
-30 20 -11 11 -29 20 -40 20 -11 0 -20 4 -20 8 0 5 -18 17 -40 28 -22 10 -40
23 -40 28 0 5 -7 3 -15 -4 -11 -9 -15 -9 -15 -1 0 7 -4 9 -10 6 -5 -3 -10 -1
-10 6 0 9 -3 9 -14 0 -11 -9 -16 -9 -21 0 -6 8 -10 7 -16 -2 -7 -11 -9 -11 -9
-1 0 10 -4 9 -16 -3 -10 -10 -24 -13 -36 -9 -15 4 -19 3 -14 -7 5 -9 3 -9 -6
1 -7 8 -24 16 -38 16 -14 1 -45 4 -70 8 -71 11 -280 22 -280 14 0 -4 -14 -3
-31 2 -26 8 -30 7 -25 -6z m-322 -4726 c-7 -7 -12 -8 -12 -2 0 14 12 26 19 19
2 -3 -1 -11 -7 -17z m268 -4021 c0 6 9 9 20 6 11 -3 20 -9 20 -14 0 -5 3 -8 8
-8 19 3 28 -2 30 -18 2 -22 10 -58 12 -58 4 0 11 -42 12 -67 1 -16 6 -28 10
-28 5 0 7 -3 5 -7 -3 -5 0 -19 6 -33 5 -14 11 -43 12 -65 1 -21 8 -41 15 -43
9 -3 9 -6 -1 -13 -10 -6 -11 -9 -1 -9 22 0 13 -58 -14 -87 -14 -15 -31 -28
-37 -28 -6 0 -11 -10 -12 -22 -1 -12 2 -20 7 -17 10 6 10 10 11 -106 0 -107
-7 -142 -29 -133 -7 3 -14 0 -14 -6 0 -6 -7 -11 -15 -11 -8 0 -15 -4 -15 -9 0
-4 -12 -8 -27 -7 -22 1 -29 -4 -31 -22 -2 -12 -8 -20 -13 -17 -5 4 -9 -2 -9
-12 -1 -17 -1 -17 -11 0 -15 26 -20 59 -7 51 8 -5 9 2 3 22 -11 42 -8 67 10
80 8 6 15 19 15 28 0 10 5 14 10 11 6 -4 10 7 10 24 0 17 -4 31 -10 31 -5 0
-8 16 -6 35 1 19 -1 35 -5 35 -4 0 -10 7 -13 16 -6 15 -4 15 10 3 16 -13 16
-12 5 9 -6 12 -9 22 -5 22 3 0 2 6 -2 13 -11 14 -10 64 1 90 9 21 -1 51 -15
42 -5 -3 -3 7 5 22 8 15 11 29 6 31 -4 1 -6 17 -4 35 2 18 5 64 7 102 3 77 25
153 38 132 5 -8 8 -9 8 0z m5502 -121 c15 0 25 -3 22 -7 -3 -5 -1 -9 3 -9 7 0
10 -85 4 -100 -1 -3 -4 -18 -6 -34 -5 -37 -6 -37 -59 -43 -41 -5 -49 -2 -77
25 -23 23 -32 41 -33 67 -1 19 3 35 7 35 5 0 6 4 2 9 -3 5 -1 12 5 16 6 4 8
11 5 16 -4 5 -1 9 5 9 6 0 8 6 4 13 -4 6 -4 9 1 5 4 -4 17 -3 28 3 14 8 18 8
13 0 -5 -7 -1 -9 8 -5 9 3 13 11 9 18 -3 6 2 4 13 -4 10 -9 31 -15 46 -14z
m-5235 -354 c17 -10 61 -102 58 -121 -1 -8 4 -22 11 -29 18 -17 12 -53 -11
-66 -13 -8 -19 -8 -22 2 -3 6 -9 10 -14 6 -5 -3 -9 0 -9 6 0 6 -3 9 -7 7 -10
-5 -47 34 -52 54 -8 34 -8 59 1 59 5 0 4 9 -2 19 -7 13 -7 28 0 45 10 26 25
32 47 18z m-177 -346 c0 -11 -19 -15 -25 -6 -3 5 1 10 9 10 9 0 16 -2 16 -4z
m5045 -806 c-3 -5 -1 -10 4 -10 6 0 11 5 11 10 0 6 7 10 16 10 11 0 14 -5 10
-16 -3 -9 -6 -19 -6 -22 0 -4 -10 -7 -23 -7 -17 0 -23 5 -21 20 3 25 3 25 10
25 3 0 2 -4 -1 -10z m-62 -61 c5 -3 1 -9 -8 -13 -11 -4 -15 -12 -11 -22 4 -11
2 -15 -8 -11 -8 3 -17 -1 -20 -10 -5 -13 -9 -13 -22 -2 -21 17 -14 60 16 87
l25 22 10 -22 c5 -13 13 -26 18 -29z m-5186 -13 c4 -4 8 -26 8 -49 1 -23 4
-48 9 -55 4 -7 2 -12 -4 -12 -6 0 -9 -4 -6 -9 4 -5 0 -12 -6 -14 -10 -4 -9 -8
2 -16 8 -6 11 -11 6 -11 -5 0 -1 -10 10 -22 10 -12 13 -18 7 -14 -7 4 -13 2
-13 -3 0 -6 9 -11 21 -11 11 0 17 -5 14 -10 -4 -6 -11 -7 -17 -4 -6 4 -8 2 -4
-4 3 -6 2 -13 -4 -17 -6 -4 -8 -11 -5 -16 3 -5 -1 -6 -9 -3 -9 4 -18 -1 -22
-10 -3 -9 -10 -13 -15 -10 -5 3 -9 -1 -9 -9 0 -8 -7 -18 -16 -21 -8 -3 -13
-10 -10 -15 3 -5 -1 -11 -9 -15 -8 -3 -15 -11 -15 -18 0 -10 2 -10 9 0 6 10
10 9 14 -7 3 -12 1 -21 -5 -21 -5 0 -6 -4 -3 -10 3 -5 1 -10 -6 -10 -8 0 -7
-5 2 -17 10 -11 10 -14 2 -9 -7 4 -13 2 -13 -3 0 -6 5 -11 10 -11 6 0 9 -3 9
-7 -4 -27 3 -45 15 -40 11 4 13 0 11 -15 -3 -11 -7 -23 -10 -27 -11 -10 -95
-28 -95 -19 0 4 -9 8 -21 8 -15 0 -19 4 -15 15 15 37 18 50 8 37 -7 -11 -10
-9 -15 7 -3 12 1 22 9 25 8 3 14 12 14 21 0 8 4 15 9 15 5 0 12 7 15 16 4 10
2 13 -7 8 -6 -4 -3 2 7 14 11 12 15 22 9 22 -5 0 -10 13 -10 30 0 16 4 27 9
24 4 -3 5 2 2 10 -3 9 -1 16 6 16 6 0 9 4 5 9 -3 6 3 14 12 20 17 10 17 10 -2
11 -17 0 -17 2 -5 10 10 6 11 10 3 10 -13 0 -2 34 23 73 11 17 12 17 29 0 17
-17 18 -17 13 10 -3 16 -1 27 6 27 8 0 8 2 0 8 -14 9 -11 95 4 100 6 2 9 9 6
17 -6 14 19 15 33 1z"/>
</g>
</svg>
